<svg width="836" height="443" viewBox="0 0 836 443" fill="none" xmlns="http://www.w3.org/2000/svg">
<g clip-path="url(#clip0_1_1169)">
<path d="M835.5 -2.51172V592.008H0.5V-2.51172H835.5Z" fill="#EDF1F2"/>
<path d="M828.954 55.1032V618.778C828.954 623.388 825.363 627.128 820.938 627.128H721.489C717.064 627.128 713.473 623.388 713.473 618.778V55.1032C713.473 50.494 717.064 46.7532 721.489 46.7532H820.938C825.363 46.7532 828.954 50.494 828.954 55.1032Z" fill="white"/>
<path d="M820.538 56.7749V66.8617H724.447V56.7749H820.538Z" fill="#E5E7E9"/>
<path d="M820.538 132.76V142.847H724.447V132.76H820.538Z" fill="#E5E7E9"/>
<path d="M790.448 82.5263C790.448 84.7641 788.645 86.5677 786.407 86.5677H733.501C731.264 86.5677 729.46 84.7641 729.46 82.5263C729.46 80.2885 731.264 78.4849 733.501 78.4849H786.407C788.645 78.4849 790.448 80.2885 790.448 82.5263Z" fill="#E5E7E9"/>
<path d="M766.536 98.7488C766.536 101.17 764.565 103.158 762.144 103.158H734.689C732.267 103.158 730.297 101.17 730.297 98.7488C730.297 96.3273 732.267 94.3567 734.689 94.3567H762.144C764.565 94.3567 766.536 96.3273 766.536 98.7488Z" fill="#E5E7E9"/>
<path d="M766.536 161.374C766.536 163.795 764.565 165.783 762.144 165.783H734.689C732.267 165.783 730.297 163.795 730.297 161.374C730.297 158.952 732.267 156.982 734.689 156.982H762.144C764.565 156.982 766.536 158.952 766.536 161.374Z" fill="#E5E7E9"/>
<path d="M110.012 52.7827V198.052C110.012 201.692 107.056 204.647 103.402 204.647H9.32183C5.66753 204.647 2.71207 201.692 2.71207 198.052V52.7827C2.71207 49.143 5.66753 46.1875 9.32183 46.1875H103.402C107.056 46.1875 110.012 49.143 110.012 52.7827Z" fill="white"/>
<path d="M110.012 52.7827V198.052C110.012 201.692 107.056 204.647 103.402 204.647H9.32183C5.66753 204.647 2.71207 201.692 2.71207 198.052V52.7827C2.71207 49.143 5.66753 46.1875 9.32183 46.1875H103.402C107.056 46.1875 110.012 49.143 110.012 52.7827Z" stroke="#EEF2F4" stroke-width="1.62478" stroke-linecap="round" stroke-linejoin="round"/>
<path d="M14.2648 65.1641H63.7944V71.7738H14.2648V65.1641Z" fill="#525C69" fill-opacity="0.15"/>
<path d="M14.2732 81.6707H81.9433V85.8054H14.2732V81.6707Z" fill="#525C69" fill-opacity="0.1"/>
<path d="M14.2685 90.7493H57.1883V94.884H14.2685V90.7493Z" fill="#525C69" fill-opacity="0.1"/>
<g opacity="0.95">
<path d="M70.3921 128.827C70.3629 129.526 70.3484 130.181 70.3484 130.836C70.3484 131.477 70.3629 132.146 70.3921 132.831C70.4212 133.529 70.5085 134.214 70.6396 134.869C70.7706 135.524 70.9599 136.15 71.2074 136.747C71.4549 137.329 71.7897 137.839 72.2265 138.29C72.6487 138.727 73.1874 139.091 73.828 139.353C74.4977 139.6 75.2839 139.717 76.1865 139.717C77.1037 139.717 77.8899 139.6 78.5451 139.353C79.1857 139.091 79.7244 138.727 80.1466 138.29C80.5833 137.839 80.9182 137.329 81.1657 136.747C81.4132 136.15 81.6025 135.524 81.7335 134.869C81.8645 134.214 81.9519 133.529 81.981 132.831C82.0101 132.146 82.0247 131.477 82.0247 130.836C82.0247 130.181 82.0101 129.526 81.981 128.827C81.9519 128.128 81.8645 127.458 81.7335 126.789C81.6025 126.133 81.4132 125.507 81.1657 124.91C80.9182 124.314 80.5833 123.804 80.1466 123.353C79.7244 122.901 79.1711 122.552 78.516 122.29C77.8754 122.028 77.0892 121.897 76.1865 121.897C75.2839 121.897 74.4977 122.028 73.828 122.29C73.1874 122.552 72.6487 122.901 72.2265 123.353C71.7897 123.804 71.4549 124.314 71.2074 124.91C70.9599 125.507 70.7706 126.133 70.6396 126.789C70.5085 127.458 70.4212 128.128 70.3921 128.827ZM72.6196 133.034C72.5905 132.204 72.5759 131.462 72.5759 130.807C72.5759 130.385 72.5759 129.904 72.5759 129.395C72.5905 128.87 72.6341 128.346 72.6924 127.837C72.7797 127.313 72.8816 126.789 73.0127 126.294C73.1728 125.799 73.3767 125.376 73.6387 125.012C73.9153 124.634 74.2647 124.328 74.6724 124.095C75.0946 123.862 75.5896 123.746 76.1865 123.746C76.7834 123.746 77.2785 123.862 77.7007 124.095C78.1083 124.328 78.4432 124.634 78.7052 125.012C78.9964 125.376 79.2002 125.799 79.3313 126.294C79.4769 126.789 79.5933 127.313 79.6516 127.837C79.7389 128.346 79.7826 128.87 79.7826 129.395C79.7972 129.904 79.7972 130.385 79.7972 130.807C79.7972 131.462 79.7826 132.204 79.7244 133.034C79.6952 133.85 79.5642 134.607 79.3313 135.335C79.1129 136.048 78.7635 136.645 78.2685 137.14C77.7735 137.635 77.0746 137.882 76.1865 137.882C75.2984 137.882 74.5996 137.635 74.1046 137.14C73.6096 136.645 73.2456 136.048 73.0127 135.335C72.8089 134.607 72.6778 133.85 72.6196 133.034Z" fill="#333333"/>
</g>
<g opacity="0.95">
<path d="M56.6336 128.827C56.6045 129.526 56.5899 130.181 56.5899 130.836C56.5899 131.477 56.6045 132.146 56.6336 132.831C56.6627 133.529 56.7501 134.214 56.8811 134.869C57.0121 135.524 57.2014 136.15 57.4489 136.747C57.6964 137.329 58.0313 137.839 58.468 138.29C58.8903 138.727 59.4289 139.091 60.0695 139.353C60.7392 139.6 61.5254 139.717 62.4281 139.717C63.3453 139.717 64.1315 139.6 64.7866 139.353C65.4272 139.091 65.9659 138.727 66.3881 138.29C66.8249 137.839 67.1597 137.329 67.4072 136.747C67.6547 136.15 67.844 135.524 67.975 134.869C68.1061 134.214 68.1934 133.529 68.2225 132.831C68.2517 132.146 68.2662 131.477 68.2662 130.836C68.2662 130.181 68.2517 129.526 68.2225 128.827C68.1934 128.128 68.1061 127.458 67.975 126.789C67.844 126.133 67.6547 125.507 67.4072 124.91C67.1597 124.314 66.8249 123.804 66.3881 123.353C65.9659 122.901 65.4127 122.552 64.7575 122.29C64.1169 122.028 63.3307 121.897 62.4281 121.897C61.5254 121.897 60.7392 122.028 60.0695 122.29C59.4289 122.552 58.8903 122.901 58.468 123.353C58.0313 123.804 57.6964 124.314 57.4489 124.91C57.2014 125.507 57.0121 126.133 56.8811 126.789C56.7501 127.458 56.6627 128.128 56.6336 128.827ZM58.8611 133.034C58.832 132.204 58.8175 131.462 58.8175 130.807C58.8175 130.385 58.8175 129.904 58.8175 129.395C58.832 128.87 58.8757 128.346 58.9339 127.837C59.0213 127.313 59.1232 126.789 59.2542 126.294C59.4144 125.799 59.6182 125.376 59.8803 125.012C60.1569 124.634 60.5063 124.328 60.9139 124.095C61.3362 123.862 61.8312 123.746 62.4281 123.746C63.025 123.746 63.52 123.862 63.9422 124.095C64.3499 124.328 64.6847 124.634 64.9468 125.012C65.238 125.376 65.4418 125.799 65.5728 126.294C65.7184 126.789 65.8349 127.313 65.8931 127.837C65.9805 128.346 66.0241 128.87 66.0241 129.395C66.0387 129.904 66.0387 130.385 66.0387 130.807C66.0387 131.462 66.0241 132.204 65.9659 133.034C65.9368 133.85 65.8058 134.607 65.5728 135.335C65.3544 136.048 65.005 136.645 64.51 137.14C64.015 137.635 63.3162 137.882 62.4281 137.882C61.54 137.882 60.8412 137.635 60.3461 137.14C59.8511 136.645 59.4872 136.048 59.2542 135.335C59.0504 134.607 58.9194 133.85 58.8611 133.034Z" fill="#333333"/>
</g>
<g opacity="0.95">
<path d="M42.8753 128.827C42.8462 129.526 42.8316 130.181 42.8316 130.836C42.8316 131.477 42.8462 132.146 42.8753 132.831C42.9044 133.529 42.9918 134.214 43.1228 134.869C43.2538 135.524 43.4431 136.15 43.6906 136.747C43.9381 137.329 44.2729 137.839 44.7097 138.29C45.1319 138.727 45.6706 139.091 46.3112 139.353C46.9809 139.6 47.7671 139.717 48.6697 139.717C49.587 139.717 50.3731 139.6 51.0283 139.353C51.6689 139.091 52.2076 138.727 52.6298 138.29C53.0666 137.839 53.4014 137.329 53.6489 136.747C53.8964 136.15 54.0857 135.524 54.2167 134.869C54.3477 134.214 54.4351 133.529 54.4642 132.831C54.4933 132.146 54.5079 131.477 54.5079 130.836C54.5079 130.181 54.4933 129.526 54.4642 128.827C54.4351 128.128 54.3477 127.458 54.2167 126.789C54.0857 126.133 53.8964 125.507 53.6489 124.91C53.4014 124.314 53.0666 123.804 52.6298 123.353C52.2076 122.901 51.6543 122.552 50.9992 122.29C50.3586 122.028 49.5724 121.897 48.6697 121.897C47.7671 121.897 46.9809 122.028 46.3112 122.29C45.6706 122.552 45.1319 122.901 44.7097 123.353C44.2729 123.804 43.9381 124.314 43.6906 124.91C43.4431 125.507 43.2538 126.133 43.1228 126.789C42.9918 127.458 42.9044 128.128 42.8753 128.827ZM45.1028 133.034C45.0737 132.204 45.0591 131.462 45.0591 130.807C45.0591 130.385 45.0591 129.904 45.0591 129.395C45.0737 128.87 45.1174 128.346 45.1756 127.837C45.263 127.313 45.3649 126.789 45.4959 126.294C45.656 125.799 45.8599 125.376 46.1219 125.012C46.3985 124.634 46.748 124.328 47.1556 124.095C47.5778 123.862 48.0728 123.746 48.6697 123.746C49.2667 123.746 49.7617 123.862 50.1839 124.095C50.5915 124.328 50.9264 124.634 51.1884 125.012C51.4796 125.376 51.6835 125.799 51.8145 126.294C51.9601 126.789 52.0765 127.313 52.1348 127.837C52.2221 128.346 52.2658 128.87 52.2658 129.395C52.2804 129.904 52.2804 130.385 52.2804 130.807C52.2804 131.462 52.2658 132.204 52.2076 133.034C52.1785 133.85 52.0474 134.607 51.8145 135.335C51.5961 136.048 51.2467 136.645 50.7517 137.14C50.2567 137.635 49.5578 137.882 48.6697 137.882C47.7817 137.882 47.0828 137.635 46.5878 137.14C46.0928 136.645 45.7288 136.048 45.4959 135.335C45.2921 134.607 45.161 133.85 45.1028 133.034Z" fill="#333333"/>
</g>
<g opacity="0.95">
<path d="M29.1169 128.827C29.0878 129.526 29.0733 130.181 29.0733 130.836C29.0733 131.477 29.0878 132.146 29.1169 132.831C29.1461 133.529 29.2334 134.214 29.3645 134.869C29.4955 135.524 29.6847 136.15 29.9323 136.747C30.1798 137.329 30.5146 137.839 30.9514 138.29C31.3736 138.727 31.9123 139.091 32.5529 139.353C33.2226 139.6 34.0088 139.717 34.9114 139.717C35.8286 139.717 36.6148 139.6 37.27 139.353C37.9106 139.091 38.4492 138.727 38.8715 138.29C39.3082 137.839 39.6431 137.329 39.8906 136.747C40.1381 136.15 40.3273 135.524 40.4584 134.869C40.5894 134.214 40.6768 133.529 40.7059 132.831C40.735 132.146 40.7496 131.477 40.7496 130.836C40.7496 130.181 40.735 129.526 40.7059 128.827C40.6768 128.128 40.5894 127.458 40.4584 126.789C40.3273 126.133 40.1381 125.507 39.8906 124.91C39.6431 124.314 39.3082 123.804 38.8715 123.353C38.4492 122.901 37.896 122.552 37.2408 122.29C36.6003 122.028 35.8141 121.897 34.9114 121.897C34.0088 121.897 33.2226 122.028 32.5529 122.29C31.9123 122.552 31.3736 122.901 30.9514 123.353C30.5146 123.804 30.1798 124.314 29.9323 124.91C29.6847 125.507 29.4955 126.133 29.3645 126.789C29.2334 127.458 29.1461 128.128 29.1169 128.827ZM31.3445 133.034C31.3154 132.204 31.3008 131.462 31.3008 130.807C31.3008 130.385 31.3008 129.904 31.3008 129.395C31.3154 128.87 31.359 128.346 31.4173 127.837C31.5046 127.313 31.6065 126.789 31.7376 126.294C31.8977 125.799 32.1015 125.376 32.3636 125.012C32.6402 124.634 32.9896 124.328 33.3973 124.095C33.8195 123.862 34.3145 123.746 34.9114 123.746C35.5083 123.746 36.0033 123.862 36.4255 124.095C36.8332 124.328 37.1681 124.634 37.4301 125.012C37.7213 125.376 37.9251 125.799 38.0562 126.294C38.2017 126.789 38.3182 127.313 38.3764 127.837C38.4638 128.346 38.5075 128.87 38.5075 129.395C38.522 129.904 38.522 130.385 38.522 130.807C38.522 131.462 38.5075 132.204 38.4492 133.034C38.4201 133.85 38.2891 134.607 38.0562 135.335C37.8378 136.048 37.4884 136.645 36.9933 137.14C36.4983 137.635 35.7995 137.882 34.9114 137.882C34.0233 137.882 33.3245 137.635 32.8295 137.14C32.3345 136.645 31.9705 136.048 31.7376 135.335C31.5337 134.607 31.4027 133.85 31.3445 133.034Z" fill="#333333"/>
</g>
<g opacity="0.95">
<path d="M15.6304 125.633C15.3975 126.39 15.3101 127.22 15.3538 128.108H17.4648C17.4503 127.584 17.494 127.06 17.6104 126.55C17.7415 126.026 17.9453 125.546 18.2365 125.138C18.5131 124.731 18.8625 124.396 19.2993 124.148C19.736 123.886 20.2747 123.755 20.8862 123.755C21.3375 123.755 21.7743 123.828 22.1965 123.974C22.6042 124.119 22.9536 124.338 23.2593 124.614C23.5651 124.891 23.8126 125.24 24.0018 125.633C24.1765 126.012 24.2784 126.434 24.2784 126.914C24.2784 127.526 24.1765 128.065 23.9727 128.53C23.798 128.996 23.5068 129.419 23.1283 129.812C22.7643 130.219 22.313 130.612 21.7452 131.006C21.1919 131.384 20.5368 131.806 19.7943 132.272C19.1828 132.636 18.6004 133.015 18.0326 133.437C17.4648 133.845 16.9698 134.325 16.5185 134.864C16.0817 135.417 15.7032 136.057 15.412 136.8C15.1209 137.528 14.9461 138.401 14.8588 139.45H26.3313V137.586H17.3193C17.4212 137.047 17.625 136.567 17.9307 136.159C18.2656 135.723 18.6587 135.33 19.0955 134.966C19.5613 134.602 20.0563 134.267 20.6096 133.946C21.1483 133.626 21.7015 133.291 22.2402 132.956C22.7934 132.622 23.3175 132.258 23.8271 131.864C24.3367 131.486 24.788 131.064 25.1957 130.612C25.5887 130.132 25.8945 129.593 26.1274 128.996C26.3749 128.399 26.506 127.715 26.506 126.944C26.506 126.114 26.3458 125.386 26.0546 124.76C25.778 124.134 25.3849 123.624 24.8899 123.202C24.3949 122.78 23.8126 122.459 23.1283 122.241C22.4731 122.008 21.7597 121.892 21.0027 121.892C20.0855 121.892 19.2556 122.052 18.5277 122.357C17.7997 122.678 17.1882 123.115 16.6932 123.682C16.2128 124.221 15.8634 124.876 15.6304 125.633Z" fill="#333333"/>
</g>
<path d="M228.861 52.7827V198.052C228.861 201.692 225.905 204.647 222.251 204.647H128.171C124.516 204.647 121.561 201.692 121.561 198.052V52.7827C121.561 49.143 124.516 46.1875 128.171 46.1875H222.251C225.905 46.1875 228.861 49.143 228.861 52.7827Z" fill="white"/>
<path d="M228.861 52.7827V198.052C228.861 201.692 225.905 204.647 222.251 204.647H128.171C124.516 204.647 121.561 201.692 121.561 198.052V52.7827C121.561 49.143 124.516 46.1875 128.171 46.1875H222.251C225.905 46.1875 228.861 49.143 228.861 52.7827Z" stroke="#EEF2F4" stroke-width="1.62478" stroke-linecap="round" stroke-linejoin="round"/>
<path d="M133.114 65.1641H182.643V71.7738H133.114V65.1641Z" fill="#525C69" fill-opacity="0.15"/>
<path d="M133.122 81.6707H200.792V85.8054H133.122V81.6707Z" fill="#525C69" fill-opacity="0.1"/>
<path d="M133.117 90.7493H176.037V94.884H133.117V90.7493Z" fill="#525C69" fill-opacity="0.1"/>
<g opacity="0.95">
<path d="M147.965 128.827C147.936 129.526 147.922 130.181 147.922 130.836C147.922 131.477 147.936 132.146 147.965 132.831C147.995 133.529 148.082 134.214 148.213 134.869C148.344 135.524 148.533 136.15 148.781 136.747C149.028 137.329 149.363 137.839 149.8 138.29C150.222 138.727 150.761 139.091 151.401 139.353C152.071 139.6 152.857 139.717 153.76 139.717C154.677 139.717 155.463 139.6 156.118 139.353C156.759 139.091 157.298 138.727 157.72 138.29C158.157 137.839 158.492 137.329 158.739 136.747C158.987 136.15 159.176 135.524 159.307 134.869C159.438 134.214 159.525 133.529 159.554 132.831C159.583 132.146 159.598 131.477 159.598 130.836C159.598 130.181 159.583 129.526 159.554 128.827C159.525 128.128 159.438 127.458 159.307 126.789C159.176 126.133 158.987 125.507 158.739 124.91C158.492 124.314 158.157 123.804 157.72 123.353C157.298 122.901 156.744 122.552 156.089 122.29C155.449 122.028 154.663 121.897 153.76 121.897C152.857 121.897 152.071 122.028 151.401 122.29C150.761 122.552 150.222 122.901 149.8 123.353C149.363 123.804 149.028 124.314 148.781 124.91C148.533 125.507 148.344 126.133 148.213 126.789C148.082 127.458 147.995 128.128 147.965 128.827ZM150.193 133.034C150.164 132.204 150.149 131.462 150.149 130.807C150.149 130.385 150.149 129.904 150.149 129.395C150.164 128.87 150.208 128.346 150.266 127.837C150.353 127.313 150.455 126.789 150.586 126.294C150.746 125.799 150.95 125.376 151.212 125.012C151.489 124.634 151.838 124.328 152.246 124.095C152.668 123.862 153.163 123.746 153.76 123.746C154.357 123.746 154.852 123.862 155.274 124.095C155.682 124.328 156.017 124.634 156.279 125.012C156.57 125.376 156.774 125.799 156.905 126.294C157.05 126.789 157.167 127.313 157.225 127.837C157.312 128.346 157.356 128.87 157.356 129.395C157.371 129.904 157.371 130.385 157.371 130.807C157.371 131.462 157.356 132.204 157.298 133.034C157.269 133.85 157.138 134.607 156.905 135.335C156.686 136.048 156.337 136.645 155.842 137.14C155.347 137.635 154.648 137.882 153.76 137.882C152.872 137.882 152.173 137.635 151.678 137.14C151.183 136.645 150.819 136.048 150.586 135.335C150.382 134.607 150.251 133.85 150.193 133.034Z" fill="#333333"/>
</g>
<g opacity="0.95">
<path d="M138.74 129.438C138.667 129.438 138.594 129.438 138.522 129.424V131.2C138.915 131.156 139.337 131.127 139.774 131.127C140.312 131.127 140.793 131.2 141.244 131.345C141.696 131.477 142.103 131.695 142.423 132.001C142.758 132.277 143.02 132.627 143.224 133.063C143.413 133.471 143.515 133.952 143.515 134.49C143.515 135.029 143.413 135.509 143.195 135.932C142.991 136.339 142.729 136.703 142.38 136.994C142.03 137.271 141.623 137.504 141.171 137.664C140.705 137.81 140.21 137.882 139.701 137.882C138.493 137.882 137.59 137.533 136.949 136.82C136.323 136.092 136.003 135.16 135.959 134.024H133.863C133.848 134.927 133.965 135.742 134.227 136.456C134.518 137.169 134.911 137.766 135.421 138.261C135.93 138.741 136.556 139.105 137.284 139.353C137.998 139.6 138.813 139.717 139.701 139.717C140.531 139.717 141.302 139.615 142.03 139.397C142.773 139.164 143.413 138.829 143.967 138.377C144.505 137.941 144.942 137.387 145.248 136.718C145.583 136.048 145.743 135.276 145.743 134.403C145.743 133.34 145.481 132.423 144.957 131.651C144.447 130.88 143.646 130.37 142.584 130.137V130.093C143.268 129.773 143.85 129.307 144.316 128.696C144.767 128.084 145 127.385 145 126.599C145 125.784 144.869 125.085 144.578 124.488C144.316 123.906 143.952 123.411 143.472 123.032C142.991 122.654 142.423 122.377 141.754 122.188C141.113 121.999 140.414 121.897 139.657 121.897C138.784 121.897 137.998 122.028 137.328 122.319C136.673 122.596 136.119 122.989 135.668 123.484C135.217 123.979 134.882 124.561 134.634 125.26C134.401 125.959 134.27 126.716 134.227 127.56H136.338C136.338 127.051 136.396 126.57 136.542 126.104C136.673 125.638 136.862 125.231 137.124 124.896C137.415 124.546 137.75 124.27 138.172 124.066C138.594 123.862 139.089 123.746 139.657 123.746C140.545 123.746 141.288 123.993 141.885 124.474C142.482 124.925 142.773 125.638 142.773 126.57C142.773 127.036 142.686 127.444 142.496 127.808C142.322 128.172 142.074 128.477 141.754 128.725C141.463 128.958 141.113 129.133 140.691 129.278C140.298 129.38 139.876 129.438 139.439 129.438H138.988C138.9 129.438 138.827 129.438 138.74 129.438Z" fill="#333333"/>
</g>
<path d="M179.275 176.064L167.06 185.163V192.996H216.589V170.313L204.811 180.475L199.424 173.647L189.51 185.163L179.275 176.064Z" fill="#DCEEA4"/>
<g opacity="0.8">
<path d="M216.589 170.309L204.811 180.471L199.424 173.643L189.51 185.159L179.275 176.06L167.06 185.159" stroke="#9DCF00" stroke-width="2.91179" stroke-linecap="round" stroke-linejoin="round"/>
</g>
<path d="M347.709 52.7827V198.052C347.709 201.692 344.754 204.647 341.099 204.647H247.019C243.365 204.647 240.409 201.692 240.409 198.052V52.7827C240.409 49.143 243.365 46.1875 247.019 46.1875H341.099C344.754 46.1875 347.709 49.143 347.709 52.7827Z" fill="white"/>
<path d="M347.709 52.7827V198.052C347.709 201.692 344.754 204.647 341.099 204.647H247.019C243.365 204.647 240.409 201.692 240.409 198.052V52.7827C240.409 49.143 243.365 46.1875 247.019 46.1875H341.099C344.754 46.1875 347.709 49.143 347.709 52.7827Z" stroke="#EEF2F4" stroke-width="1.62478" stroke-linecap="round" stroke-linejoin="round"/>
<path d="M251.962 65.1641H301.492V71.7738H251.962V65.1641Z" fill="#525C69" fill-opacity="0.15"/>
<path d="M251.971 81.6707H319.641V85.8054H251.971V81.6707Z" fill="#525C69" fill-opacity="0.1"/>
<g opacity="0.95">
<path d="M308.09 128.827C308.06 129.526 308.046 130.181 308.046 130.836C308.046 131.477 308.06 132.146 308.09 132.831C308.119 133.529 308.206 134.214 308.337 134.869C308.468 135.524 308.657 136.15 308.905 136.747C309.152 137.329 309.487 137.839 309.924 138.29C310.346 138.727 310.885 139.091 311.525 139.353C312.195 139.6 312.981 139.717 313.884 139.717C314.801 139.717 315.587 139.6 316.243 139.353C316.883 139.091 317.422 138.727 317.844 138.29C318.281 137.839 318.616 137.329 318.863 136.747C319.111 136.15 319.3 135.524 319.431 134.869C319.562 134.214 319.649 133.529 319.679 132.831C319.708 132.146 319.722 131.477 319.722 130.836C319.722 130.181 319.708 129.526 319.679 128.827C319.649 128.128 319.562 127.458 319.431 126.789C319.3 126.133 319.111 125.507 318.863 124.91C318.616 124.314 318.281 123.804 317.844 123.353C317.422 122.901 316.869 122.552 316.213 122.29C315.573 122.028 314.787 121.897 313.884 121.897C312.981 121.897 312.195 122.028 311.525 122.29C310.885 122.552 310.346 122.901 309.924 123.353C309.487 123.804 309.152 124.314 308.905 124.91C308.657 125.507 308.468 126.133 308.337 126.789C308.206 127.458 308.119 128.128 308.09 128.827ZM310.317 133.034C310.288 132.204 310.273 131.462 310.273 130.807C310.273 130.385 310.273 129.904 310.273 129.395C310.288 128.87 310.332 128.346 310.39 127.837C310.477 127.313 310.579 126.789 310.71 126.294C310.87 125.799 311.074 125.376 311.336 125.012C311.613 124.634 311.962 124.328 312.37 124.095C312.792 123.862 313.287 123.746 313.884 123.746C314.481 123.746 314.976 123.862 315.398 124.095C315.806 124.328 316.141 124.634 316.403 125.012C316.694 125.376 316.898 125.799 317.029 126.294C317.174 126.789 317.291 127.313 317.349 127.837C317.436 128.346 317.48 128.87 317.48 129.395C317.495 129.904 317.495 130.385 317.495 130.807C317.495 131.462 317.48 132.204 317.422 133.034C317.393 133.85 317.262 134.607 317.029 135.335C316.81 136.048 316.461 136.645 315.966 137.14C315.471 137.635 314.772 137.882 313.884 137.882C312.996 137.882 312.297 137.635 311.802 137.14C311.307 136.645 310.943 136.048 310.71 135.335C310.506 134.607 310.375 133.85 310.317 133.034Z" fill="#333333"/>
</g>
<g opacity="0.95">
<path d="M294.331 128.827C294.302 129.526 294.287 130.181 294.287 130.836C294.287 131.477 294.302 132.146 294.331 132.831C294.36 133.529 294.448 134.214 294.579 134.869C294.71 135.524 294.899 136.15 295.146 136.747C295.394 137.329 295.729 137.839 296.166 138.29C296.588 138.727 297.126 139.091 297.767 139.353C298.437 139.6 299.223 139.717 300.126 139.717C301.043 139.717 301.829 139.6 302.484 139.353C303.125 139.091 303.663 138.727 304.086 138.29C304.522 137.839 304.857 137.329 305.105 136.747C305.352 136.15 305.542 135.524 305.673 134.869C305.804 134.214 305.891 133.529 305.92 132.831C305.949 132.146 305.964 131.477 305.964 130.836C305.964 130.181 305.949 129.526 305.92 128.827C305.891 128.128 305.804 127.458 305.673 126.789C305.542 126.133 305.352 125.507 305.105 124.91C304.857 124.314 304.522 123.804 304.086 123.353C303.663 122.901 303.11 122.552 302.455 122.29C301.814 122.028 301.028 121.897 300.126 121.897C299.223 121.897 298.437 122.028 297.767 122.29C297.126 122.552 296.588 122.901 296.166 123.353C295.729 123.804 295.394 124.314 295.146 124.91C294.899 125.507 294.71 126.133 294.579 126.789C294.448 127.458 294.36 128.128 294.331 128.827ZM296.559 133.034C296.53 132.204 296.515 131.462 296.515 130.807C296.515 130.385 296.515 129.904 296.515 129.395C296.53 128.87 296.573 128.346 296.631 127.837C296.719 127.313 296.821 126.789 296.952 126.294C297.112 125.799 297.316 125.376 297.578 125.012C297.854 124.634 298.204 124.328 298.611 124.095C299.034 123.862 299.529 123.746 300.126 123.746C300.723 123.746 301.218 123.862 301.64 124.095C302.047 124.328 302.382 124.634 302.644 125.012C302.935 125.376 303.139 125.799 303.27 126.294C303.416 126.789 303.532 127.313 303.591 127.837C303.678 128.346 303.722 128.87 303.722 129.395C303.736 129.904 303.736 130.385 303.736 130.807C303.736 131.462 303.722 132.204 303.663 133.034C303.634 133.85 303.503 134.607 303.27 135.335C303.052 136.048 302.703 136.645 302.208 137.14C301.713 137.635 301.014 137.882 300.126 137.882C299.238 137.882 298.539 137.635 298.044 137.14C297.549 136.645 297.185 136.048 296.952 135.335C296.748 134.607 296.617 133.85 296.559 133.034Z" fill="#333333"/>
</g>
<g opacity="0.95">
<path d="M280.573 128.827C280.544 129.526 280.529 130.181 280.529 130.836C280.529 131.477 280.544 132.146 280.573 132.831C280.602 133.529 280.689 134.214 280.82 134.869C280.951 135.524 281.141 136.15 281.388 136.747C281.636 137.329 281.971 137.839 282.407 138.29C282.829 138.727 283.368 139.091 284.009 139.353C284.678 139.6 285.465 139.717 286.367 139.717C287.285 139.717 288.071 139.6 288.726 139.353C289.366 139.091 289.905 138.727 290.327 138.29C290.764 137.839 291.099 137.329 291.346 136.747C291.594 136.15 291.783 135.524 291.914 134.869C292.045 134.214 292.133 133.529 292.162 132.831C292.191 132.146 292.205 131.477 292.205 130.836C292.205 130.181 292.191 129.526 292.162 128.827C292.133 128.128 292.045 127.458 291.914 126.789C291.783 126.133 291.594 125.507 291.346 124.91C291.099 124.314 290.764 123.804 290.327 123.353C289.905 122.901 289.352 122.552 288.697 122.29C288.056 122.028 287.27 121.897 286.367 121.897C285.465 121.897 284.678 122.028 284.009 122.29C283.368 122.552 282.829 122.901 282.407 123.353C281.971 123.804 281.636 124.314 281.388 124.91C281.141 125.507 280.951 126.133 280.82 126.789C280.689 127.458 280.602 128.128 280.573 128.827ZM282.8 133.034C282.771 132.204 282.757 131.462 282.757 130.807C282.757 130.385 282.757 129.904 282.757 129.395C282.771 128.87 282.815 128.346 282.873 127.837C282.961 127.313 283.062 126.789 283.193 126.294C283.354 125.799 283.557 125.376 283.82 125.012C284.096 124.634 284.446 124.328 284.853 124.095C285.275 123.862 285.77 123.746 286.367 123.746C286.964 123.746 287.459 123.862 287.881 124.095C288.289 124.328 288.624 124.634 288.886 125.012C289.177 125.376 289.381 125.799 289.512 126.294C289.658 126.789 289.774 127.313 289.832 127.837C289.92 128.346 289.963 128.87 289.963 129.395C289.978 129.904 289.978 130.385 289.978 130.807C289.978 131.462 289.963 132.204 289.905 133.034C289.876 133.85 289.745 134.607 289.512 135.335C289.294 136.048 288.944 136.645 288.449 137.14C287.954 137.635 287.255 137.882 286.367 137.882C285.479 137.882 284.78 137.635 284.285 137.14C283.79 136.645 283.426 136.048 283.193 135.335C282.99 134.607 282.859 133.85 282.8 133.034Z" fill="#333333"/>
</g>
<g opacity="0.95">
<path d="M267.086 125.633C266.853 126.39 266.766 127.22 266.81 128.108H268.921C268.906 127.584 268.95 127.06 269.066 126.55C269.197 126.026 269.401 125.546 269.692 125.138C269.969 124.731 270.318 124.396 270.755 124.148C271.192 123.886 271.731 123.755 272.342 123.755C272.793 123.755 273.23 123.828 273.652 123.974C274.06 124.119 274.409 124.338 274.715 124.614C275.021 124.891 275.268 125.24 275.458 125.633C275.632 126.012 275.734 126.434 275.734 126.914C275.734 127.526 275.632 128.065 275.429 128.53C275.254 128.996 274.963 129.419 274.584 129.812C274.22 130.219 273.769 130.612 273.201 131.006C272.648 131.384 271.993 131.806 271.25 132.272C270.639 132.636 270.056 133.015 269.489 133.437C268.921 133.845 268.426 134.325 267.974 134.864C267.538 135.417 267.159 136.057 266.868 136.8C266.577 137.528 266.402 138.401 266.315 139.45H277.787V137.586H268.775C268.877 137.047 269.081 136.567 269.387 136.159C269.721 135.723 270.115 135.33 270.551 134.966C271.017 134.602 271.512 134.267 272.065 133.946C272.604 133.626 273.157 133.291 273.696 132.956C274.249 132.622 274.773 132.258 275.283 131.864C275.793 131.486 276.244 131.064 276.652 130.612C277.045 130.132 277.35 129.593 277.583 128.996C277.831 128.399 277.962 127.715 277.962 126.944C277.962 126.114 277.802 125.386 277.511 124.76C277.234 124.134 276.841 123.624 276.346 123.202C275.851 122.78 275.268 122.459 274.584 122.241C273.929 122.008 273.216 121.892 272.459 121.892C271.541 121.892 270.712 122.052 269.984 122.357C269.256 122.678 268.644 123.115 268.149 123.682C267.669 124.221 267.319 124.876 267.086 125.633Z" fill="#333333"/>
</g>
<g opacity="0.95">
<path d="M258.675 139.45H260.786V121.892H259.17C259.053 122.547 258.849 123.1 258.529 123.522C258.209 123.959 257.83 124.294 257.364 124.541C256.913 124.789 256.418 124.964 255.85 125.065C255.297 125.138 254.714 125.182 254.118 125.182V126.871H258.675V139.45Z" fill="#333333"/>
</g>
<path d="M298.93 172.422L313.373 184.23L320.667 175.975H334.833V193.3H284.488V179.221L298.93 172.422Z" fill="#FFE9C8"/>
<g opacity="0.8">
<path d="M335.555 174.801L321.389 174.656L314.007 182.838L299.696 170.885L285.181 177.524" stroke="#FFB546" stroke-width="2.91179" stroke-linecap="round" stroke-linejoin="round"/>
</g>
<path d="M466.558 52.7827V198.052C466.558 201.692 463.603 204.647 459.948 204.647H365.868C362.214 204.647 359.259 201.692 359.259 198.052V52.7827C359.259 49.143 362.214 46.1875 365.868 46.1875H459.948C463.603 46.1875 466.558 49.143 466.558 52.7827Z" fill="white"/>
<path d="M466.558 52.7827V198.052C466.558 201.692 463.603 204.647 459.948 204.647H365.868C362.214 204.647 359.259 201.692 359.259 198.052V52.7827C359.259 49.143 362.214 46.1875 365.868 46.1875H459.948C463.603 46.1875 466.558 49.143 466.558 52.7827Z" stroke="#EEF2F4" stroke-width="1.62478" stroke-linecap="round" stroke-linejoin="round"/>
<path d="M370.811 65.1636H420.341V71.7733H370.811V65.1636Z" fill="#525C69" fill-opacity="0.15"/>
<path d="M370.82 81.6707H438.49V85.8054H370.82V81.6707Z" fill="#525C69" fill-opacity="0.1"/>
<path d="M370.816 90.7495H413.735V94.8843H370.816V90.7495Z" fill="#525C69" fill-opacity="0.1"/>
<g opacity="0.95">
<path d="M413.181 128.827C413.152 129.526 413.137 130.181 413.137 130.836C413.137 131.477 413.152 132.146 413.181 132.831C413.21 133.53 413.297 134.214 413.428 134.869C413.559 135.524 413.748 136.15 413.996 136.747C414.243 137.329 414.578 137.839 415.015 138.29C415.437 138.727 415.976 139.091 416.617 139.353C417.286 139.601 418.072 139.717 418.975 139.717C419.892 139.717 420.679 139.601 421.334 139.353C421.974 139.091 422.513 138.727 422.935 138.29C423.372 137.839 423.707 137.329 423.954 136.747C424.202 136.15 424.391 135.524 424.522 134.869C424.653 134.214 424.74 133.53 424.77 132.831C424.799 132.146 424.813 131.477 424.813 130.836C424.813 130.181 424.799 129.526 424.77 128.827C424.74 128.128 424.653 127.458 424.522 126.789C424.391 126.134 424.202 125.508 423.954 124.911C423.707 124.314 423.372 123.804 422.935 123.353C422.513 122.902 421.96 122.552 421.305 122.29C420.664 122.028 419.878 121.897 418.975 121.897C418.072 121.897 417.286 122.028 416.617 122.29C415.976 122.552 415.437 122.902 415.015 123.353C414.578 123.804 414.243 124.314 413.996 124.911C413.748 125.508 413.559 126.134 413.428 126.789C413.297 127.458 413.21 128.128 413.181 128.827ZM415.408 133.035C415.379 132.205 415.364 131.462 415.364 130.807C415.364 130.385 415.364 129.904 415.364 129.395C415.379 128.871 415.423 128.347 415.481 127.837C415.568 127.313 415.67 126.789 415.801 126.294C415.961 125.799 416.165 125.377 416.427 125.013C416.704 124.634 417.053 124.328 417.461 124.095C417.883 123.862 418.378 123.746 418.975 123.746C419.572 123.746 420.067 123.862 420.489 124.095C420.897 124.328 421.232 124.634 421.494 125.013C421.785 125.377 421.989 125.799 422.12 126.294C422.265 126.789 422.382 127.313 422.44 127.837C422.527 128.347 422.571 128.871 422.571 129.395C422.586 129.904 422.586 130.385 422.586 130.807C422.586 131.462 422.571 132.205 422.513 133.035C422.484 133.85 422.353 134.607 422.12 135.335C421.901 136.048 421.552 136.645 421.057 137.14C420.562 137.635 419.863 137.883 418.975 137.883C418.087 137.883 417.388 137.635 416.893 137.14C416.398 136.645 416.034 136.048 415.801 135.335C415.597 134.607 415.466 133.85 415.408 133.035Z" fill="#333333"/>
</g>
<g opacity="0.95">
<path d="M399.421 128.827C399.392 129.526 399.377 130.181 399.377 130.836C399.377 131.477 399.392 132.146 399.421 132.831C399.45 133.53 399.537 134.214 399.668 134.869C399.799 135.524 399.989 136.15 400.236 136.747C400.484 137.329 400.819 137.839 401.255 138.29C401.678 138.727 402.216 139.091 402.857 139.353C403.527 139.601 404.313 139.717 405.215 139.717C406.133 139.717 406.919 139.601 407.574 139.353C408.214 139.091 408.753 138.727 409.175 138.29C409.612 137.839 409.947 137.329 410.195 136.747C410.442 136.15 410.631 135.524 410.762 134.869C410.893 134.214 410.981 133.53 411.01 132.831C411.039 132.146 411.053 131.477 411.053 130.836C411.053 130.181 411.039 129.526 411.01 128.827C410.981 128.128 410.893 127.458 410.762 126.789C410.631 126.134 410.442 125.508 410.195 124.911C409.947 124.314 409.612 123.804 409.175 123.353C408.753 122.902 408.2 122.552 407.545 122.29C406.904 122.028 406.118 121.897 405.215 121.897C404.313 121.897 403.527 122.028 402.857 122.29C402.216 122.552 401.678 122.902 401.255 123.353C400.819 123.804 400.484 124.314 400.236 124.911C399.989 125.508 399.799 126.134 399.668 126.789C399.537 127.458 399.45 128.128 399.421 128.827ZM401.648 133.035C401.619 132.205 401.605 131.462 401.605 130.807C401.605 130.385 401.605 129.904 401.605 129.395C401.619 128.871 401.663 128.347 401.721 127.837C401.809 127.313 401.91 126.789 402.041 126.294C402.202 125.799 402.405 125.377 402.668 125.013C402.944 124.634 403.294 124.328 403.701 124.095C404.123 123.862 404.618 123.746 405.215 123.746C405.812 123.746 406.307 123.862 406.729 124.095C407.137 124.328 407.472 124.634 407.734 125.013C408.025 125.377 408.229 125.799 408.36 126.294C408.506 126.789 408.622 127.313 408.68 127.837C408.768 128.347 408.811 128.871 408.811 129.395C408.826 129.904 408.826 130.385 408.826 130.807C408.826 131.462 408.811 132.205 408.753 133.035C408.724 133.85 408.593 134.607 408.36 135.335C408.142 136.048 407.792 136.645 407.297 137.14C406.802 137.635 406.103 137.883 405.215 137.883C404.327 137.883 403.628 137.635 403.133 137.14C402.638 136.645 402.274 136.048 402.041 135.335C401.838 134.607 401.707 133.85 401.648 133.035Z" fill="#333333"/>
</g>
<g opacity="0.95">
<path d="M389.125 124.055H396.215V122.191H387.538L385.907 131.305L387.713 131.407C388.135 130.912 388.601 130.504 389.125 130.213C389.678 129.893 390.29 129.747 390.988 129.747C391.585 129.747 392.124 129.835 392.59 130.038C393.085 130.242 393.507 130.519 393.856 130.883C394.206 131.232 394.468 131.654 394.657 132.149C394.846 132.63 394.948 133.154 394.948 133.722C394.948 134.421 394.846 135.032 394.657 135.556C394.453 136.066 394.177 136.503 393.827 136.852C393.507 137.201 393.114 137.464 392.648 137.638C392.197 137.813 391.731 137.886 391.236 137.886C390.712 137.886 390.217 137.813 389.78 137.667C389.343 137.507 388.965 137.274 388.63 136.998C388.324 136.706 388.062 136.357 387.873 135.978C387.683 135.585 387.582 135.163 387.538 134.726H385.441C385.456 135.513 385.616 136.226 385.907 136.852C386.213 137.478 386.606 138.002 387.13 138.439C387.64 138.847 388.222 139.167 388.877 139.4C389.562 139.618 390.275 139.72 391.032 139.72C392.066 139.72 392.954 139.56 393.711 139.254C394.483 138.919 395.123 138.483 395.647 137.944C396.157 137.391 396.535 136.779 396.783 136.08C397.045 135.367 397.176 134.639 397.176 133.897C397.176 132.892 397.03 132.018 396.725 131.276C396.433 130.519 396.026 129.893 395.516 129.398C395.007 128.888 394.41 128.51 393.711 128.262C393.012 128.015 392.284 127.884 391.512 127.884C390.916 127.884 390.304 127.986 389.693 128.204C389.11 128.408 388.615 128.714 388.237 129.15L388.193 129.092L389.125 124.055Z" fill="#333333"/>
</g>
<g opacity="0.95">
<path d="M375.367 124.055H382.457V122.191H373.78L372.149 131.305L373.954 131.407C374.377 130.912 374.843 130.504 375.367 130.213C375.92 129.893 376.531 129.747 377.23 129.747C377.827 129.747 378.366 129.835 378.832 130.038C379.327 130.242 379.749 130.519 380.098 130.883C380.448 131.232 380.71 131.654 380.899 132.149C381.088 132.63 381.19 133.154 381.19 133.722C381.19 134.421 381.088 135.032 380.899 135.556C380.695 136.066 380.419 136.503 380.069 136.852C379.749 137.201 379.356 137.464 378.89 137.638C378.439 137.813 377.973 137.886 377.478 137.886C376.954 137.886 376.459 137.813 376.022 137.667C375.585 137.507 375.206 137.274 374.872 136.998C374.566 136.706 374.304 136.357 374.115 135.978C373.925 135.585 373.823 135.163 373.78 134.726H371.683C371.698 135.513 371.858 136.226 372.149 136.852C372.455 137.478 372.848 138.002 373.372 138.439C373.882 138.847 374.464 139.167 375.119 139.4C375.803 139.618 376.517 139.72 377.274 139.72C378.308 139.72 379.196 139.56 379.953 139.254C380.724 138.919 381.365 138.483 381.889 137.944C382.399 137.391 382.777 136.779 383.025 136.08C383.287 135.367 383.418 134.639 383.418 133.897C383.418 132.892 383.272 132.018 382.966 131.276C382.675 130.519 382.268 129.893 381.758 129.398C381.248 128.888 380.652 128.51 379.953 128.262C379.254 128.015 378.526 127.884 377.754 127.884C377.157 127.884 376.546 127.986 375.934 128.204C375.352 128.408 374.857 128.714 374.479 129.15L374.435 129.092L375.367 124.055Z" fill="#333333"/>
</g>
<path d="M585.406 52.7827V198.052C585.406 201.692 582.451 204.647 578.797 204.647H484.717C481.062 204.647 478.107 201.692 478.107 198.052V52.7827C478.107 49.143 481.062 46.1875 484.717 46.1875H578.797C582.451 46.1875 585.406 49.143 585.406 52.7827Z" fill="white"/>
<path d="M585.406 52.7827V198.052C585.406 201.692 582.451 204.647 578.797 204.647H484.717C481.062 204.647 478.107 201.692 478.107 198.052V52.7827C478.107 49.143 481.062 46.1875 484.717 46.1875H578.797C582.451 46.1875 585.406 49.143 585.406 52.7827Z" stroke="#EEF2F4" stroke-width="1.62478" stroke-linecap="round" stroke-linejoin="round"/>
<path d="M489.66 65.1636H539.189V71.7733H489.66V65.1636Z" fill="#525C69" fill-opacity="0.15"/>
<path d="M489.668 81.6707H557.338V85.8054H489.668V81.6707Z" fill="#525C69" fill-opacity="0.1"/>
<path d="M489.664 90.7495H532.584V94.8843H489.664V90.7495Z" fill="#525C69" fill-opacity="0.1"/>
<g opacity="0.95">
<path d="M528.624 124.055H535.714V122.191H527.037L525.406 131.305L527.212 131.407C527.634 130.912 528.1 130.504 528.624 130.213C529.177 129.893 529.789 129.747 530.487 129.747C531.084 129.747 531.623 129.835 532.089 130.038C532.584 130.242 533.006 130.519 533.355 130.883C533.705 131.232 533.967 131.654 534.156 132.149C534.345 132.63 534.447 133.154 534.447 133.722C534.447 134.421 534.345 135.032 534.156 135.556C533.952 136.066 533.676 136.503 533.326 136.852C533.006 137.201 532.613 137.464 532.147 137.638C531.696 137.813 531.23 137.886 530.735 137.886C530.211 137.886 529.716 137.813 529.279 137.667C528.842 137.507 528.464 137.274 528.129 136.998C527.823 136.706 527.561 136.357 527.372 135.978C527.182 135.585 527.081 135.163 527.037 134.726H524.94C524.955 135.513 525.115 136.226 525.406 136.852C525.712 137.478 526.105 138.002 526.629 138.439C527.139 138.847 527.721 139.167 528.376 139.4C529.061 139.618 529.774 139.72 530.531 139.72C531.565 139.72 532.453 139.56 533.21 139.254C533.981 138.919 534.622 138.483 535.146 137.944C535.656 137.391 536.034 136.779 536.282 136.08C536.544 135.367 536.675 134.639 536.675 133.897C536.675 132.892 536.529 132.018 536.224 131.276C535.932 130.519 535.525 129.893 535.015 129.398C534.506 128.888 533.909 128.51 533.21 128.262C532.511 128.015 531.783 127.884 531.011 127.884C530.415 127.884 529.803 127.986 529.192 128.204C528.609 128.408 528.114 128.714 527.736 129.15L527.692 129.092L528.624 124.055Z" fill="#333333"/>
</g>
<g opacity="0.95">
<path d="M521.979 136.705H519.242V139.442H521.979V136.705Z" fill="#333333"/>
</g>
<g opacity="0.95">
<path d="M507.973 124.055H515.064V122.191H506.386L504.756 131.305L506.561 131.407C506.983 130.912 507.449 130.504 507.973 130.213C508.527 129.893 509.138 129.747 509.837 129.747C510.434 129.747 510.973 129.835 511.438 130.038C511.933 130.242 512.356 130.519 512.705 130.883C513.054 131.232 513.317 131.654 513.506 132.149C513.695 132.63 513.797 133.154 513.797 133.722C513.797 134.421 513.695 135.032 513.506 135.556C513.302 136.066 513.025 136.503 512.676 136.852C512.356 137.201 511.963 137.464 511.497 137.638C511.045 137.813 510.579 137.886 510.084 137.886C509.56 137.886 509.065 137.813 508.629 137.667C508.192 137.507 507.813 137.274 507.478 136.998C507.173 136.706 506.911 136.357 506.721 135.978C506.532 135.585 506.43 135.163 506.386 134.726H504.29C504.305 135.513 504.465 136.226 504.756 136.852C505.062 137.478 505.455 138.002 505.979 138.439C506.488 138.847 507.071 139.167 507.726 139.4C508.41 139.618 509.124 139.72 509.881 139.72C510.914 139.72 511.802 139.56 512.559 139.254C513.331 138.919 513.972 138.483 514.496 137.944C515.005 137.391 515.384 136.779 515.631 136.08C515.893 135.367 516.024 134.639 516.024 133.897C516.024 132.892 515.879 132.018 515.573 131.276C515.282 130.519 514.874 129.893 514.365 129.398C513.855 128.888 513.258 128.51 512.559 128.262C511.861 128.015 511.133 127.884 510.361 127.884C509.764 127.884 509.153 127.986 508.541 128.204C507.959 128.408 507.464 128.714 507.085 129.15L507.042 129.092L507.973 124.055Z" fill="#333333"/>
</g>
<g opacity="0.95">
<path d="M495.287 129.439C495.214 129.439 495.141 129.439 495.068 129.424V131.2C495.461 131.156 495.883 131.127 496.32 131.127C496.859 131.127 497.339 131.2 497.791 131.346C498.242 131.477 498.65 131.695 498.97 132.001C499.305 132.278 499.567 132.627 499.771 133.064C499.96 133.471 500.062 133.952 500.062 134.49C500.062 135.029 499.96 135.51 499.742 135.932C499.538 136.339 499.276 136.703 498.926 136.995C498.577 137.271 498.169 137.504 497.718 137.664C497.252 137.81 496.757 137.883 496.247 137.883C495.039 137.883 494.136 137.533 493.496 136.82C492.87 136.092 492.549 135.16 492.506 134.025H490.409C490.395 134.927 490.511 135.743 490.773 136.456C491.064 137.169 491.458 137.766 491.967 138.261C492.477 138.742 493.103 139.106 493.831 139.353C494.544 139.601 495.359 139.717 496.247 139.717C497.077 139.717 497.849 139.615 498.577 139.397C499.319 139.164 499.96 138.829 500.513 138.378C501.052 137.941 501.489 137.388 501.794 136.718C502.129 136.048 502.289 135.277 502.289 134.403C502.289 133.34 502.027 132.423 501.503 131.651C500.994 130.88 500.193 130.37 499.13 130.137V130.094C499.814 129.773 500.397 129.307 500.863 128.696C501.314 128.085 501.547 127.386 501.547 126.6C501.547 125.784 501.416 125.085 501.125 124.488C500.863 123.906 500.499 123.411 500.018 123.033C499.538 122.654 498.97 122.377 498.3 122.188C497.66 121.999 496.961 121.897 496.204 121.897C495.33 121.897 494.544 122.028 493.874 122.319C493.219 122.596 492.666 122.989 492.215 123.484C491.763 123.979 491.428 124.561 491.181 125.26C490.948 125.959 490.817 126.716 490.773 127.56H492.884C492.884 127.051 492.943 126.57 493.088 126.105C493.219 125.639 493.408 125.231 493.67 124.896C493.962 124.547 494.297 124.27 494.719 124.066C495.141 123.862 495.636 123.746 496.204 123.746C497.092 123.746 497.834 123.993 498.431 124.474C499.028 124.925 499.319 125.639 499.319 126.57C499.319 127.036 499.232 127.444 499.043 127.808C498.868 128.172 498.621 128.478 498.3 128.725C498.009 128.958 497.66 129.133 497.237 129.278C496.844 129.38 496.422 129.439 495.985 129.439H495.534C495.447 129.439 495.374 129.439 495.287 129.439Z" fill="#333333"/>
</g>
<path d="M704.256 52.7827V198.052C704.256 201.692 701.3 204.647 697.646 204.647H603.566C599.912 204.647 596.956 201.692 596.956 198.052V52.7827C596.956 49.143 599.912 46.1875 603.566 46.1875H697.646C701.3 46.1875 704.256 49.143 704.256 52.7827Z" fill="white"/>
<path d="M704.256 52.7827V198.052C704.256 201.692 701.3 204.647 697.646 204.647H603.566C599.912 204.647 596.956 201.692 596.956 198.052V52.7827C596.956 49.143 599.912 46.1875 603.566 46.1875H697.646C701.3 46.1875 704.256 49.143 704.256 52.7827Z" stroke="#EEF2F4" stroke-width="1.62478" stroke-linecap="round" stroke-linejoin="round"/>
<path d="M608.509 65.1636H658.038V71.7733H608.509V65.1636Z" fill="#525C69" fill-opacity="0.15"/>
<path d="M608.517 81.6707H676.187V85.8054H608.517V81.6707Z" fill="#525C69" fill-opacity="0.1"/>
<path d="M608.513 90.7495H651.433V94.8843H608.513V90.7495Z" fill="#525C69" fill-opacity="0.1"/>
<g opacity="0.95">
<path d="M641.223 121.772H638.005V139.446H640.233V124.742H640.291L645.809 139.446H647.818L653.336 124.742H653.394V139.446H655.622V121.772H652.404L646.799 136.622L641.223 121.772Z" fill="#333333"/>
</g>
<g opacity="0.95">
<path d="M623.36 128.827C623.331 129.526 623.317 130.181 623.317 130.836C623.317 131.477 623.331 132.146 623.36 132.831C623.389 133.53 623.477 134.214 623.608 134.869C623.739 135.524 623.928 136.15 624.176 136.747C624.423 137.329 624.758 137.839 625.195 138.29C625.617 138.727 626.156 139.091 626.796 139.353C627.466 139.601 628.252 139.717 629.155 139.717C630.072 139.717 630.858 139.601 631.513 139.353C632.154 139.091 632.693 138.727 633.115 138.29C633.552 137.839 633.886 137.329 634.134 136.747C634.381 136.15 634.571 135.524 634.702 134.869C634.833 134.214 634.92 133.53 634.949 132.831C634.978 132.146 634.993 131.477 634.993 130.836C634.993 130.181 634.978 129.526 634.949 128.827C634.92 128.128 634.833 127.458 634.702 126.789C634.571 126.134 634.381 125.508 634.134 124.911C633.886 124.314 633.552 123.804 633.115 123.353C632.693 122.902 632.139 122.552 631.484 122.29C630.844 122.028 630.057 121.897 629.155 121.897C628.252 121.897 627.466 122.028 626.796 122.29C626.156 122.552 625.617 122.902 625.195 123.353C624.758 123.804 624.423 124.314 624.176 124.911C623.928 125.508 623.739 126.134 623.608 126.789C623.477 127.458 623.389 128.128 623.36 128.827ZM625.588 133.035C625.559 132.205 625.544 131.462 625.544 130.807C625.544 130.385 625.544 129.904 625.544 129.395C625.559 128.871 625.602 128.347 625.661 127.837C625.748 127.313 625.85 126.789 625.981 126.294C626.141 125.799 626.345 125.377 626.607 125.013C626.884 124.634 627.233 124.328 627.641 124.095C628.063 123.862 628.558 123.746 629.155 123.746C629.752 123.746 630.247 123.862 630.669 124.095C631.077 124.328 631.411 124.634 631.673 125.013C631.965 125.377 632.168 125.799 632.3 126.294C632.445 126.789 632.562 127.313 632.62 127.837C632.707 128.347 632.751 128.871 632.751 129.395C632.765 129.904 632.765 130.385 632.765 130.807C632.765 131.462 632.751 132.205 632.693 133.035C632.664 133.85 632.532 134.607 632.3 135.335C632.081 136.048 631.732 136.645 631.237 137.14C630.742 137.635 630.043 137.883 629.155 137.883C628.267 137.883 627.568 137.635 627.073 137.14C626.578 136.645 626.214 136.048 625.981 135.335C625.777 134.607 625.646 133.85 625.588 133.035Z" fill="#333333"/>
</g>
<g opacity="0.95">
<path d="M615.22 139.449H617.331V121.891H615.715C615.599 122.546 615.395 123.1 615.075 123.522C614.754 123.958 614.376 124.293 613.91 124.541C613.459 124.788 612.964 124.963 612.396 125.065C611.843 125.138 611.26 125.181 610.663 125.181V126.87H615.22V139.449Z" fill="#333333"/>
</g>
<path d="M468.223 225.296V420.91C468.223 426.369 463.782 430.81 458.323 430.81H12.644C7.18435 430.81 2.74387 426.369 2.74387 420.91V225.296C2.74387 219.836 7.18435 215.396 12.644 215.396H458.323C463.782 215.396 468.223 219.836 468.223 225.296Z" fill="white"/>
<path d="M20.8974 235.2H152.947V241.81H20.8974V235.2Z" fill="#525C69" fill-opacity="0.15"/>
<path d="M20.8915 373.032H27.5013V379.642H20.8915V373.032Z" fill="white"/>
<path d="M20.8915 373.032H27.5013V379.642H20.8915V373.032Z" stroke="#DFE0E3" stroke-width="2.91179" stroke-linecap="round" stroke-linejoin="round"/>
<path d="M35.7548 376.337H443.464" stroke="#F1F4F6" stroke-width="0.727948" stroke-linecap="round" stroke-linejoin="round"/>
<path d="M20.8915 396.142H27.5012V402.752H20.8915V396.142Z" fill="white"/>
<path d="M20.8915 396.142H27.5012V402.752H20.8915V396.142Z" stroke="#DFE0E3" stroke-width="2.91179" stroke-linecap="round" stroke-linejoin="round"/>
<path d="M35.7548 399.447H443.464" stroke="#F1F4F6" stroke-width="0.727948" stroke-linecap="round" stroke-linejoin="round"/>
<path d="M20.8915 349.923H27.5013V356.533H20.8915V349.923Z" fill="white"/>
<path d="M20.8915 349.923H27.5013V356.533H20.8915V349.923Z" stroke="#DFE0E3" stroke-width="2.91179" stroke-linecap="round" stroke-linejoin="round"/>
<path d="M35.7548 353.228H443.464" stroke="#F1F4F6" stroke-width="0.727948" stroke-linecap="round" stroke-linejoin="round"/>
<path d="M20.8915 326.814H27.5013V333.423H20.8915V326.814Z" fill="white"/>
<path d="M20.8915 326.814H27.5013V333.423H20.8915V326.814Z" stroke="#DFE0E3" stroke-width="2.91179" stroke-linecap="round" stroke-linejoin="round"/>
<path d="M35.7547 330.118H443.464" stroke="#F1F4F6" stroke-width="0.727948" stroke-linecap="round" stroke-linejoin="round"/>
<path d="M20.8915 303.704H27.5013V310.314H20.8915V303.704Z" fill="white"/>
<path d="M20.8915 303.704H27.5013V310.314H20.8915V303.704Z" stroke="#DFE0E3" stroke-width="2.91179" stroke-linecap="round" stroke-linejoin="round"/>
<path d="M35.7547 307.009H443.464" stroke="#F1F4F6" stroke-width="0.727948" stroke-linecap="round" stroke-linejoin="round"/>
<path d="M20.8915 280.595H27.5013V287.204H20.8915V280.595Z" fill="white"/>
<path d="M20.8915 280.595H27.5013V287.204H20.8915V280.595Z" stroke="#DFE0E3" stroke-width="2.91179" stroke-linecap="round" stroke-linejoin="round"/>
<path d="M35.7548 283.9H443.464" stroke="#F1F4F6" stroke-width="0.727948" stroke-linecap="round" stroke-linejoin="round"/>
<path d="M46.1558 341.125L35.7462 376.911V399.332H444.3V361.901L433.657 345.318L420.772 337.704L413.726 322.344L406.956 337.704L396.153 343.906L389.179 359.848L378.581 369.733L370.136 353.646L357.077 376.343L344.571 365.773L331.832 363.138L325.033 349.263L317.185 363.138L307.285 365.773L296.948 319.126L286.655 334.413L276.013 330.73L265.588 312.72L254.873 334.413L244.565 346.381L234.243 337.704L223.935 340.601L213.205 312.124L202.883 343.906L192.546 319.126L182.02 349.263L171.596 334.413L161.201 352.146L150.66 322.373L140.119 319.126L129.797 349.263L119.184 334.413H108.774L98.4516 349.263L88.1584 330.279L77.0208 334.413L66.6985 330.279L56.6674 368.132L46.1558 341.125Z" fill="#D8F4FC"/>
<path d="M444.3 361.901L433.657 345.318L420.772 337.704L413.726 322.344L406.956 337.704L396.153 343.891L389.179 359.848L378.581 369.733L370.136 353.646L357.077 376.343L344.571 365.773L331.832 363.138L325.033 349.263L317.185 363.138L307.285 365.773L296.948 319.126L286.655 334.413L276.013 330.73L265.588 312.72L254.873 334.413L244.565 346.381L234.243 337.704L223.935 340.601L213.205 312.124L202.883 343.891L192.546 319.126L182.02 349.263L171.596 334.413L161.201 352.146L150.66 322.358L140.119 319.126L129.797 349.263L119.184 334.413H108.774L98.4516 349.263L88.1584 330.279L77.0208 334.413L66.6985 330.279L56.6674 368.132L46.1558 341.125L35.7462 376.911" stroke="#50CDF7" stroke-width="2.18384" stroke-linecap="round" stroke-linejoin="round"/>
<path d="M33.2769 374.436H38.227V379.386H33.2769V374.436Z" fill="white"/>
<path d="M33.2769 374.436H38.227V379.386H33.2769V374.436Z" stroke="#50CDF7" stroke-width="2.18384" stroke-linecap="round" stroke-linejoin="round"/>
<path d="M43.72 338.122H48.6701V343.072H43.72V338.122Z" fill="white"/>
<path d="M43.72 338.122H48.6701V343.072H43.72V338.122Z" stroke="#50CDF7" stroke-width="2.18384" stroke-linecap="round" stroke-linejoin="round"/>
<path d="M54.1646 366.183H59.1147V371.133H54.1646V366.183Z" fill="white"/>
<path d="M54.1646 366.183H59.1147V371.133H54.1646V366.183Z" stroke="#50CDF7" stroke-width="2.18384" stroke-linecap="round" stroke-linejoin="round"/>
<path d="M64.6076 328.217H69.5577V333.167H64.6076V328.217Z" fill="white"/>
<path d="M64.6076 328.217H69.5577V333.167H64.6076V328.217Z" stroke="#50CDF7" stroke-width="2.18384" stroke-linecap="round" stroke-linejoin="round"/>
<path d="M75.0509 331.931H80.0009V336.881H75.0509V331.931Z" fill="white"/>
<path d="M75.0509 331.931H80.0009V336.881H75.0509V331.931Z" stroke="#50CDF7" stroke-width="2.18384" stroke-linecap="round" stroke-linejoin="round"/>
<path d="M85.4954 328.217H90.4454V333.167H85.4954V328.217Z" fill="white"/>
<path d="M85.4954 328.217H90.4454V333.167H85.4954V328.217Z" stroke="#50CDF7" stroke-width="2.18384" stroke-linecap="round" stroke-linejoin="round"/>
<path d="M95.9387 346.375H100.889V351.325H95.9387V346.375Z" fill="white"/>
<path d="M95.9387 346.375H100.889V351.325H95.9387V346.375Z" stroke="#50CDF7" stroke-width="2.18384" stroke-linecap="round" stroke-linejoin="round"/>
<path d="M106.382 331.931H111.332V336.881H106.382V331.931Z" fill="white"/>
<path d="M106.382 331.931H111.332V336.881H106.382V331.931Z" stroke="#50CDF7" stroke-width="2.18384" stroke-linecap="round" stroke-linejoin="round"/>
<path d="M116.826 331.931H121.776V336.881H116.826V331.931Z" fill="white"/>
<path d="M116.826 331.931H121.776V336.881H116.826V331.931Z" stroke="#50CDF7" stroke-width="2.18384" stroke-linecap="round" stroke-linejoin="round"/>
<path d="M127.27 346.375H132.22V351.325H127.27V346.375Z" fill="white"/>
<path d="M127.27 346.375H132.22V351.325H127.27V346.375Z" stroke="#50CDF7" stroke-width="2.18384" stroke-linecap="round" stroke-linejoin="round"/>
<path d="M137.714 316.663H142.664V321.613H137.714V316.663Z" fill="white"/>
<path d="M137.714 316.663H142.664V321.613H137.714V316.663Z" stroke="#50CDF7" stroke-width="2.18384" stroke-linecap="round" stroke-linejoin="round"/>
<path d="M148.157 319.964H153.107V324.914H148.157V319.964Z" fill="white"/>
<path d="M148.157 319.964H153.107V324.914H148.157V319.964Z" stroke="#50CDF7" stroke-width="2.18384" stroke-linecap="round" stroke-linejoin="round"/>
<path d="M158.6 349.692H163.55V354.642H158.6V349.692Z" fill="white"/>
<path d="M158.6 349.692H163.55V354.642H158.6V349.692Z" stroke="#50CDF7" stroke-width="2.18384" stroke-linecap="round" stroke-linejoin="round"/>
<path d="M169.045 332.345H173.995V337.295H169.045V332.345Z" fill="white"/>
<path d="M169.045 332.345H173.995V337.295H169.045V332.345Z" stroke="#50CDF7" stroke-width="2.18384" stroke-linecap="round" stroke-linejoin="round"/>
<path d="M179.488 346.375H184.438V351.325H179.488V346.375Z" fill="white"/>
<path d="M179.488 346.375H184.438V351.325H179.488V346.375Z" stroke="#50CDF7" stroke-width="2.18384" stroke-linecap="round" stroke-linejoin="round"/>
<path d="M189.931 318.674H194.881V323.624H189.931V318.674Z" fill="white"/>
<path d="M189.931 318.674H194.881V323.624H189.931V318.674Z" stroke="#50CDF7" stroke-width="2.18384" stroke-linecap="round" stroke-linejoin="round"/>
<path d="M200.376 340.598H205.326V345.548H200.376V340.598Z" fill="white"/>
<path d="M200.376 340.598H205.326V345.548H200.376V340.598Z" stroke="#50CDF7" stroke-width="2.18384" stroke-linecap="round" stroke-linejoin="round"/>
<path d="M210.819 311.71H215.769V316.66H210.819V311.71Z" fill="white"/>
<path d="M210.819 311.71H215.769V316.66H210.819V311.71Z" stroke="#50CDF7" stroke-width="2.18384" stroke-linecap="round" stroke-linejoin="round"/>
<path d="M221.264 338.122H226.214V343.072H221.264V338.122Z" fill="white"/>
<path d="M221.264 338.122H226.214V343.072H221.264V338.122Z" stroke="#50CDF7" stroke-width="2.18384" stroke-linecap="round" stroke-linejoin="round"/>
<path d="M231.707 335.645H236.657V340.595H231.707V335.645Z" fill="white"/>
<path d="M231.707 335.645H236.657V340.595H231.707V335.645Z" stroke="#50CDF7" stroke-width="2.18384" stroke-linecap="round" stroke-linejoin="round"/>
<path d="M242.15 343.898H247.1V348.848H242.15V343.898Z" fill="white"/>
<path d="M242.15 343.898H247.1V348.848H242.15V343.898Z" stroke="#50CDF7" stroke-width="2.18384" stroke-linecap="round" stroke-linejoin="round"/>
<path d="M252.594 332.345H257.545V337.295H252.594V332.345Z" fill="white"/>
<path d="M252.594 332.345H257.545V337.295H252.594V332.345Z" stroke="#50CDF7" stroke-width="2.18384" stroke-linecap="round" stroke-linejoin="round"/>
<path d="M263.038 310.311H267.988V315.261H263.038V310.311Z" fill="white"/>
<path d="M263.038 310.311H267.988V315.261H263.038V310.311Z" stroke="#50CDF7" stroke-width="2.18384" stroke-linecap="round" stroke-linejoin="round"/>
<path d="M273.481 328.138H278.431V333.088H273.481V328.138Z" fill="white"/>
<path d="M273.481 328.138H278.431V333.088H273.481V328.138Z" stroke="#50CDF7" stroke-width="2.18384" stroke-linecap="round" stroke-linejoin="round"/>
<path d="M283.925 331.931H288.875V336.881H283.925V331.931Z" fill="white"/>
<path d="M283.925 331.931H288.875V336.881H283.925V331.931Z" stroke="#50CDF7" stroke-width="2.18384" stroke-linecap="round" stroke-linejoin="round"/>
<path d="M294.369 316.663H299.319V321.613H294.369V316.663Z" fill="white"/>
<path d="M294.369 316.663H299.319V321.613H294.369V316.663Z" stroke="#50CDF7" stroke-width="2.18384" stroke-linecap="round" stroke-linejoin="round"/>
<path d="M304.813 363.708H309.763V368.658H304.813V363.708Z" fill="white"/>
<path d="M304.813 363.708H309.763V368.658H304.813V363.708Z" stroke="#50CDF7" stroke-width="2.18384" stroke-linecap="round" stroke-linejoin="round"/>
<path d="M322.44 346.375H327.39V351.325H322.44V346.375Z" fill="white"/>
<path d="M322.44 346.375H327.39V351.325H322.44V346.375Z" stroke="#50CDF7" stroke-width="2.18384" stroke-linecap="round" stroke-linejoin="round"/>
<path d="M329.509 360.417H334.46V365.367H329.509V360.417Z" fill="white"/>
<path d="M329.509 360.417H334.46V365.367H329.509V360.417Z" stroke="#50CDF7" stroke-width="2.18384" stroke-linecap="round" stroke-linejoin="round"/>
<path d="M343.552 363.708H348.502V368.658H343.552V363.708Z" fill="white"/>
<path d="M343.552 363.708H348.502V368.658H343.552V363.708Z" stroke="#50CDF7" stroke-width="2.18384" stroke-linecap="round" stroke-linejoin="round"/>
<path d="M354.647 373.862H359.597V378.812H354.647V373.862Z" fill="white"/>
<path d="M354.647 373.862H359.597V378.812H354.647V373.862Z" stroke="#50CDF7" stroke-width="2.18384" stroke-linecap="round" stroke-linejoin="round"/>
<path d="M367.706 351.327H372.656V356.277H367.706V351.327Z" fill="white"/>
<path d="M367.706 351.327H372.656V356.277H367.706V351.327Z" stroke="#50CDF7" stroke-width="2.18384" stroke-linecap="round" stroke-linejoin="round"/>
<path d="M376.643 366.183H381.593V371.133H376.643V366.183Z" fill="white"/>
<path d="M376.643 366.183H381.593V371.133H376.643V366.183Z" stroke="#50CDF7" stroke-width="2.18384" stroke-linecap="round" stroke-linejoin="round"/>
<path d="M387.444 356.28H392.394V361.23H387.444V356.28Z" fill="white"/>
<path d="M387.444 356.28H392.394V361.23H387.444V356.28Z" stroke="#50CDF7" stroke-width="2.18384" stroke-linecap="round" stroke-linejoin="round"/>
<path d="M394.613 341.424H399.563V346.374H394.613V341.424Z" fill="white"/>
<path d="M394.613 341.424H399.563V346.374H394.613V341.424Z" stroke="#50CDF7" stroke-width="2.18384" stroke-linecap="round" stroke-linejoin="round"/>
<path d="M405.218 334.942H410.168V339.892H405.218V334.942Z" fill="white"/>
<path d="M405.218 334.942H410.168V339.892H405.218V334.942Z" stroke="#50CDF7" stroke-width="2.18384" stroke-linecap="round" stroke-linejoin="round"/>
<path d="M411.404 319.138H416.354V324.088H411.404V319.138Z" fill="white"/>
<path d="M411.404 319.138H416.354V324.088H411.404V319.138Z" stroke="#50CDF7" stroke-width="2.18384" stroke-linecap="round" stroke-linejoin="round"/>
<path d="M418.08 334.942H423.03V339.892H418.08V334.942Z" fill="white"/>
<path d="M418.08 334.942H423.03V339.892H418.08V334.942Z" stroke="#50CDF7" stroke-width="2.18384" stroke-linecap="round" stroke-linejoin="round"/>
<path d="M440.993 358.755H445.943V363.705H440.993V358.755Z" fill="white"/>
<path d="M440.993 358.755H445.943V363.705H440.993V358.755Z" stroke="#50CDF7" stroke-width="2.18384" stroke-linecap="round" stroke-linejoin="round"/>
<path d="M431.729 342.994H436.679V347.944H431.729V342.994Z" fill="white"/>
<path d="M431.729 342.994H436.679V347.944H431.729V342.994Z" stroke="#50CDF7" stroke-width="2.18384" stroke-linecap="round" stroke-linejoin="round"/>
<path d="M42.0719 410.997H56.9221V415.131H42.0719V410.997Z" fill="#525C69" fill-opacity="0.1"/>
<path d="M74.2603 410.997H89.1105V415.131H74.2603V410.997Z" fill="#525C69" fill-opacity="0.1"/>
<path d="M106.447 410.997H121.297V415.131H106.447V410.997Z" fill="#525C69" fill-opacity="0.1"/>
<path d="M138.636 410.997H153.486V415.131H138.636V410.997Z" fill="#525C69" fill-opacity="0.1"/>
<path d="M170.824 410.997H185.674V415.131H170.824V410.997Z" fill="#525C69" fill-opacity="0.1"/>
<path d="M203.012 410.997H217.863V415.131H203.012V410.997Z" fill="#525C69" fill-opacity="0.1"/>
<path d="M235.201 410.997H250.051V415.131H235.201V410.997Z" fill="#525C69" fill-opacity="0.1"/>
<path d="M331.765 410.997H346.615V415.131H331.765V410.997Z" fill="#525C69" fill-opacity="0.1"/>
<path d="M267.389 410.997H282.239V415.131H267.389V410.997Z" fill="#525C69" fill-opacity="0.1"/>
<path d="M363.953 410.997H378.803V415.131H363.953V410.997Z" fill="#525C69" fill-opacity="0.1"/>
<path d="M299.576 410.997H314.426V415.131H299.576V410.997Z" fill="#525C69" fill-opacity="0.1"/>
<path d="M397.791 410.997H412.641V415.131H397.791V410.997Z" fill="#525C69" fill-opacity="0.1"/>
<path d="M429.441 410.997H444.291V415.131H429.441V410.997Z" fill="#525C69" fill-opacity="0.1"/>
<path d="M636.403 284.958V361.247C636.403 363.377 634.672 365.108 632.542 365.108H552.392C550.262 365.108 548.531 363.377 548.531 361.247V284.958C548.531 282.828 550.262 281.097 552.392 281.097H632.542C634.672 281.097 636.403 282.828 636.403 284.958Z" fill="white"/>
<path d="M639.312 272.602L642.66 275.95" stroke="#B4B4B4" stroke-width="0.5678" stroke-linecap="round" stroke-linejoin="round"/>
<path d="M642.657 272.597L639.16 276.086" stroke="#B4B4B4" stroke-width="0.5678" stroke-linecap="round" stroke-linejoin="round"/>
<path d="M631.285 299.886H631.603V362.003H631.285V299.886Z" fill="#F1F4F6"/>
<path d="M591.049 299.886H591.367V362.003H591.049V299.886Z" fill="#EEF2F4"/>
<path d="M555.614 317.791H631.574" stroke="#F1F4F6" stroke-width="0.2839" stroke-linecap="round" stroke-linejoin="round"/>
<path d="M555.614 328.736H631.574" stroke="#F1F4F6" stroke-width="0.2839" stroke-linecap="round" stroke-linejoin="round"/>
<path d="M555.614 339.679H631.574" stroke="#F1F4F6" stroke-width="0.2839" stroke-linecap="round" stroke-linejoin="round"/>
<path d="M555.614 350.945H631.574" stroke="#F1F4F6" stroke-width="0.2839" stroke-linecap="round" stroke-linejoin="round"/>
<path d="M604.858 302.018H617.736V303.63H604.858V302.018Z" fill="#525C69" fill-opacity="0.15"/>
<path d="M631.635 307.2V307.518H555.674V307.2H631.635Z" fill="#F1F4F6"/>
<path d="M631.574 361.569V361.887H555.614V361.569H631.574Z" fill="#F1F4F6"/>
<path d="M555.614 302.018H575.566V303.63H555.614V302.018Z" fill="#525C69" fill-opacity="0.15"/>
<path d="M555.611 311.996H568.488V313.608H555.611V311.996Z" fill="#F1F4F6"/>
<path d="M599.39 311.996H623.204V313.608H599.39V311.996Z" fill="#F1F4F6"/>
<path d="M555.611 322.618H568.488V324.231H555.611V322.618Z" fill="#F1F4F6"/>
<path d="M599.39 322.618H623.204V324.231H599.39V322.618Z" fill="#F1F4F6"/>
<path d="M555.611 333.562H568.488V335.175H555.611V333.562Z" fill="#F1F4F6"/>
<path d="M599.39 333.562H623.204V335.175H599.39V333.562Z" fill="#F1F4F6"/>
<path d="M555.611 344.506H568.488V346.119H555.611V344.506Z" fill="#F1F4F6"/>
<path d="M599.39 344.506H623.204V346.119H599.39V344.506Z" fill="#F1F4F6"/>
<path d="M555.611 355.45H568.488V357.063H555.611V355.45Z" fill="#F1F4F6"/>
<path d="M599.39 355.45H623.204V357.063H599.39V355.45Z" fill="#F1F4F6"/>
<path d="M555.614 288.821H594.235V291.398H555.614V288.821Z" fill="#525C69" fill-opacity="0.15"/>
<path d="M228.079 452.631V620.176C228.079 625.635 223.638 630.076 218.179 630.076H12.6643C7.20473 630.076 2.76425 625.635 2.76425 620.176V452.631C2.76425 447.172 7.20473 442.731 12.6643 442.731H218.179C223.638 442.731 228.079 447.172 228.079 452.631Z" fill="white"/>
<path d="M228.079 452.631V620.176C228.079 625.635 223.638 630.076 218.179 630.076H12.6643C7.20473 630.076 2.76425 625.635 2.76425 620.176V452.631C2.76425 447.172 7.20473 442.731 12.6643 442.731H218.179C223.638 442.731 228.079 447.172 228.079 452.631Z" stroke="#EEF2F4" stroke-width="1.74708" stroke-linecap="round" stroke-linejoin="round"/>
<path d="M704.864 449.574V712.043C704.864 715.682 701.894 718.638 698.254 718.638H486.974C483.335 718.638 480.365 715.682 480.365 712.043V449.574C480.365 445.934 483.335 442.979 486.974 442.979H698.254C701.894 442.979 704.864 445.934 704.864 449.574Z" fill="white"/>
<path d="M704.864 449.574V712.043C704.864 715.682 701.894 718.638 698.254 718.638H486.974C483.335 718.638 480.365 715.682 480.365 712.043V449.574C480.365 445.934 483.335 442.979 486.974 442.979H698.254C701.894 442.979 704.864 445.934 704.864 449.574Z" stroke="#EEF2F4" stroke-width="1.62478" stroke-linecap="round" stroke-linejoin="round"/>
<path d="M465.995 449.042V648.282C465.995 651.936 463.04 654.892 459.4 654.892H247.946C244.291 654.892 241.336 651.936 241.336 648.282V449.042C241.336 445.403 244.291 442.447 247.946 442.447H459.4C463.04 442.447 465.995 445.403 465.995 449.042Z" fill="#F9F9F9"/>
<path d="M375.696 170.376V248.08C375.696 249.505 374.543 250.658 373.124 250.658H290.657C289.231 250.658 288.079 249.505 288.079 248.08V170.376C288.079 168.957 289.231 167.804 290.657 167.804H373.124C374.543 167.804 375.696 168.957 375.696 170.376Z" fill="white"/>
<path d="M294.206 175.849H322.21V178.427H294.206V175.849Z" fill="#525C69" fill-opacity="0.15"/>
<path d="M294.203 181.965H308.694V184.543H294.203V181.965Z" fill="#525C69" fill-opacity="0.15"/>
<path d="M319.16 228.317H356.922" stroke="#F1F4F6" stroke-width="0.335506" stroke-linecap="round" stroke-linejoin="round"/>
<path d="M308.256 222.524H312.117" stroke="#F1F4F6" stroke-width="0.2839" stroke-linecap="round" stroke-linejoin="round"/>
<path d="M308.256 217.052H312.117" stroke="#F1F4F6" stroke-width="0.2839" stroke-linecap="round" stroke-linejoin="round"/>
<path d="M308.256 211.58H312.117" stroke="#F1F4F6" stroke-width="0.2839" stroke-linecap="round" stroke-linejoin="round"/>
<path d="M308.256 206.107H312.117" stroke="#F1F4F6" stroke-width="0.2839" stroke-linecap="round" stroke-linejoin="round"/>
<path d="M308.256 200.635H312.117" stroke="#F1F4F6" stroke-width="0.2839" stroke-linecap="round" stroke-linejoin="round"/>
<path d="M308.256 195.164H312.117" stroke="#F1F4F6" stroke-width="0.2839" stroke-linecap="round" stroke-linejoin="round"/>
<path d="M297.426 227.03H301.287V228.961H297.426V227.03Z" fill="#525C69" fill-opacity="0.1"/>
<path d="M297.426 221.558H301.287V223.489H297.426V221.558Z" fill="#525C69" fill-opacity="0.1"/>
<path d="M297.426 216.086H301.287V218.017H297.426V216.086Z" fill="#525C69" fill-opacity="0.1"/>
<path d="M297.426 210.614H301.287V212.545H297.426V210.614Z" fill="#525C69" fill-opacity="0.1"/>
<path d="M297.426 205.142H301.287V207.073H297.426V205.142Z" fill="#525C69" fill-opacity="0.1"/>
<path d="M297.426 199.67H301.287V201.601H297.426V199.67Z" fill="#525C69" fill-opacity="0.1"/>
<path d="M297.426 194.198H301.287V196.129H297.426V194.198Z" fill="#525C69" fill-opacity="0.1"/>
<path d="M308.476 194.221H307.204V228.346H308.476V194.221Z" fill="#3CC7F6"/>
<path d="M312.018 224.801H310.746V228.344H312.018V224.801Z" fill="#3CC7F6"/>
<path d="M315.724 223.19H314.452V228.346H315.724V223.19Z" fill="#3CC7F6"/>
<path d="M319.347 220.294H318.076V228.345H319.347V220.294Z" fill="#3CC7F6"/>
<path d="M323.216 217.723H321.944V228.341H323.216V217.723Z" fill="#3CC7F6"/>
<path d="M326.677 220.294H325.405V228.345H326.677V220.294Z" fill="#3CC7F6"/>
<path d="M330.179 221.585H328.907V228.342H330.179V221.585Z" fill="#3CC7F6"/>
<path d="M333.396 222.871H332.124V228.344H333.396V222.871Z" fill="#3CC7F6"/>
<path d="M336.491 224.481H335.219V228.342H336.491V224.481Z" fill="#3CC7F6"/>
<path d="M339.667 222.871H338.395V228.344H339.667V222.871Z" fill="#3CC7F6"/>
<path d="M342.925 220.939H341.653V228.344H342.925V220.939Z" fill="#3CC7F6"/>
<path d="M346.182 218.689H344.91V228.341H346.182V218.689Z" fill="#3CC7F6"/>
<path d="M349.44 216.432H348.168V228.345H349.44V216.432Z" fill="#3CC7F6"/>
<path d="M352.738 214.501H351.466V228.344H352.738V214.501Z" fill="#3CC7F6"/>
<path d="M355.996 212.89H354.724V228.346H355.996V212.89Z" fill="#3CC7F6"/>
<path d="M359.294 210.959H358.022V228.345H359.294V210.959Z" fill="#3CC7F6"/>
<path d="M362.511 209.674H361.239V228.343H362.511V209.674Z" fill="#3CC7F6"/>
<path d="M365.769 207.743H364.497V228.343H365.769V207.743Z" fill="#3CC7F6"/>
<path d="M368.986 206.132H367.714V228.344H368.986V206.132Z" fill="#3CC7F6"/>
<path d="M303.103 231.156H347.527V232.769H303.103V231.156Z" fill="#525C69" fill-opacity="0.1"/>
<path d="M312.761 234.697H337.869V236.31H312.761V234.697Z" fill="#525C69" fill-opacity="0.1"/>
<path d="M836.492 -2.57666V36.5577H0.486023V-2.57666H836.492Z" fill="white"/>
<path d="M119.754 21.3706L123.225 19.5598L126.696 21.3706C126.746 21.3706 126.796 21.4209 126.847 21.3706C126.998 21.3706 127.098 21.2197 127.098 21.0688L126.444 17.1956L129.211 14.4793C129.261 14.429 129.311 14.3787 129.311 14.3284C129.311 14.1775 129.211 14.0266 129.06 13.9763L125.187 13.423L123.476 9.95224C123.476 9.90194 123.426 9.85163 123.376 9.80133C123.225 9.75103 123.024 9.80133 122.973 9.95224L121.263 13.423L117.39 13.9763C117.34 14.0266 117.239 14.0266 117.239 14.0769C117.088 14.1775 117.088 14.3787 117.239 14.4793L120.006 17.1956L119.352 21.0688C119.352 21.1191 119.352 21.1694 119.402 21.2197C119.452 21.3706 119.654 21.4209 119.754 21.3706ZM128.104 14.58L125.69 16.9441L126.243 20.3143L123.225 18.755L120.207 20.3143L120.76 16.9441L118.346 14.58L121.716 14.0769L123.225 11.0086L124.734 14.0769L128.104 14.58Z" fill="#525C69"/>
<path d="M210.224 16.0769C210.224 20.0004 207.055 23.2196 203.131 23.2196H150.416C146.492 23.2196 143.323 20.0004 143.323 16.0769C143.323 12.1534 146.492 8.93408 150.416 8.93408H203.131C207.055 8.93408 210.224 12.1534 210.224 16.0769Z" fill="#EEEEEE"/>
<path d="M210.224 16.0769C210.224 20.0004 207.055 23.2196 203.131 23.2196H150.416C146.492 23.2196 143.323 20.0004 143.323 16.0769C143.323 12.1534 146.492 8.93408 150.416 8.93408H203.131C207.055 8.93408 210.224 12.1534 210.224 16.0769Z" stroke="#EBEBEB" stroke-width="5.03012" stroke-linecap="round" stroke-linejoin="round"/>
<path d="M736.177 15.3071V19.1481C736.177 19.6658 735.759 20.1 735.242 20.1H694.861C694.343 20.1 693.926 19.6658 693.926 19.1481V15.3071C693.926 14.7894 694.343 14.3552 694.861 14.3552H735.242C735.759 14.3552 736.177 14.7894 736.177 15.3071Z" fill="#EAF5F5"/>
<path d="M736.177 15.3071V19.1481C736.177 19.6658 735.759 20.1 735.242 20.1H694.861C694.343 20.1 693.926 19.6658 693.926 19.1481V15.3071C693.926 14.7894 694.343 14.3552 694.861 14.3552H735.242C735.759 14.3552 736.177 14.7894 736.177 15.3071Z" stroke="#EBEBEB" stroke-width="0.501" stroke-linecap="round" stroke-linejoin="round"/>
<path d="M718.959 17.3946C718.959 17.6952 718.708 17.9457 718.408 17.9457H697.65C697.349 17.9457 697.099 17.6952 697.099 17.3946C697.099 17.094 697.349 16.8435 697.65 16.8435H718.408C718.708 16.8435 718.959 17.094 718.959 17.3946Z" fill="#E5E7E9"/>
<path d="M730.232 17.3611C730.232 17.6784 729.981 17.9456 729.647 17.9456H721.464C721.147 17.9456 720.88 17.6784 720.88 17.3611C720.88 17.0271 721.147 16.7766 721.464 16.7766H729.647C729.981 16.7766 730.232 17.0271 730.232 17.3611Z" fill="#E5E7E9"/>
<path d="M808.601 10.1203V25.8143C808.601 27.3737 807.343 28.6312 805.784 28.6312H790.09C788.53 28.6312 787.273 27.3737 787.273 25.8143V10.1203C787.273 8.561 788.53 7.30347 790.09 7.30347H805.784C807.343 7.30347 808.601 8.561 808.601 10.1203Z" stroke="#919D9C" stroke-width="1.50904" stroke-linecap="round" stroke-linejoin="round"/>
<path d="M802.401 19.263C803.307 19.263 804.011 18.5587 804.011 17.7036C804.011 16.8485 803.307 16.1443 802.401 16.1443C801.546 16.1443 800.842 16.8485 800.842 17.7036C800.842 18.5587 801.546 19.263 802.401 19.263ZM799.232 17.7036C799.232 18.5587 798.528 19.263 797.673 19.263C796.818 19.263 796.114 18.5587 796.114 17.7036C796.114 16.8485 796.818 16.1443 797.673 16.1443C798.528 16.1443 799.232 16.8485 799.232 17.7036ZM794.504 17.7036C794.504 18.5587 793.8 19.263 792.945 19.263C792.039 19.263 791.335 18.5587 791.335 17.7036C791.335 16.8485 792.039 16.1443 792.945 16.1443C793.8 16.1443 794.504 16.8485 794.504 17.7036Z" fill="#525C69"/>
<path d="M76.19 18.2785L79.4662 13.513C79.8291 12.9447 80.0927 12.4654 80.2639 12.0683H80.3358C80.2742 12.8215 80.2434 13.7869 80.2434 14.9646V18.2785H76.19ZM84.088 18.2785H82.3112V9.68555H80.2434L74.2146 18.4052V20.0382H80.2434V22.9174H82.3112V20.0382H84.088V18.2785Z" fill="#2EC6F7"/>
<path d="M73.5299 21.0481H67.2649V20.9591L69.5586 18.7373C70.5857 17.7684 71.3217 17.0016 71.7668 16.4333C72.2084 15.8615 72.5371 15.3104 72.7493 14.7763C72.9616 14.2388 73.0711 13.6739 73.0711 13.0782C73.0711 11.9964 72.698 11.1337 71.9585 10.4935C71.219 9.84988 70.2365 9.53149 69.0075 9.53149C68.2269 9.53149 67.4874 9.66159 66.7959 9.91835C66.1043 10.1785 65.3922 10.6167 64.6562 11.2364L65.8031 12.6366C66.4227 12.147 66.9705 11.8115 67.4429 11.6267C67.9154 11.4384 68.4015 11.3459 68.9082 11.3459C69.5415 11.3459 70.0345 11.5171 70.394 11.8595C70.75 12.2018 70.9315 12.6708 70.9315 13.2665C70.9315 13.7013 70.8561 14.1087 70.7055 14.4853C70.5549 14.8653 70.3152 15.2693 69.9866 15.7006C69.6579 16.132 68.9938 16.8612 67.9872 17.8883L64.5843 21.3118V22.9174H73.5299V21.0481Z" fill="#2EC6F7"/>
<path d="M49.9385 22.9173H52.3384L54.7931 19.1788L57.258 22.9173H59.6579L56.1316 17.8162L59.4867 12.9343H57.0868L54.7931 16.4263L52.5199 12.9343H50.0994L53.4476 17.8162L49.9385 22.9173Z" fill="#DFE0E2"/>
<path d="M46.7205 11.1405C46.9293 11.3493 47.2237 11.452 47.6106 11.452C47.9837 11.452 48.2747 11.3493 48.4802 11.1405C48.689 10.9351 48.7917 10.6509 48.7917 10.288C48.7917 9.91146 48.689 9.61704 48.4802 9.41505C48.2747 9.20964 47.9837 9.10693 47.6106 9.10693C47.2237 9.10693 46.9293 9.20964 46.7205 9.41505C46.5151 9.61704 46.4089 9.91146 46.4089 10.288C46.4089 10.6509 46.5151 10.9351 46.7205 11.1405ZM48.6582 12.9344H46.5356V22.9173H48.6582V12.9344Z" fill="#DFE0E2"/>
<path d="M42.3726 13.2767C41.8386 13.6259 41.4072 14.0984 41.0785 14.6941H40.969L40.6883 12.9344H39.0279V22.9173H41.1504V17.6999C41.1504 16.8166 41.414 16.0977 41.9378 15.5431C42.4651 14.9885 43.1532 14.7112 44.0022 14.7112C44.3274 14.7112 44.639 14.7488 44.9402 14.8207L45.1491 12.8419C44.8718 12.7837 44.5192 12.7529 44.0912 12.7529C43.4784 12.7529 42.9033 12.9275 42.3726 13.2767Z" fill="#DFE0E2"/>
<path d="M34.9368 21.0174C34.68 20.7743 34.5533 20.3977 34.5533 19.8842V14.5401H37.3949V12.9345H34.5533V10.7126H33.2421L32.5198 12.8249L31.058 13.6021V14.5401H32.4205V19.9219C32.4205 22.0376 33.427 23.0989 35.4366 23.0989C35.8337 23.0989 36.2172 23.0646 36.5869 22.9927C36.9566 22.9243 37.2613 22.8387 37.4941 22.736V21.1406C36.9772 21.3015 36.4602 21.3837 35.9433 21.3837C35.5256 21.3837 35.1901 21.2605 34.9368 21.0174Z" fill="#DFE0E2"/>
<path d="M27.7166 11.1405C27.9254 11.3493 28.2199 11.452 28.6067 11.452C28.9799 11.452 29.2674 11.3493 29.4763 11.1405C29.6851 10.9351 29.7878 10.6509 29.7878 10.288C29.7878 9.91146 29.6851 9.61704 29.4763 9.41505C29.2674 9.20964 28.9799 9.10693 28.6067 9.10693C28.2199 9.10693 27.9254 9.20964 27.7166 9.41505C27.5078 9.61704 27.4051 9.91146 27.4051 10.288C27.4051 10.6509 27.5078 10.9351 27.7166 11.1405ZM29.6509 12.9344H27.5317V22.9173H29.6509V12.9344Z" fill="#DFE0E2"/>
<path d="M20.3561 16.9228C21.3147 16.9228 22.0267 17.0905 22.4958 17.4192C22.9648 17.7513 23.201 18.2579 23.201 18.9461C23.201 19.6924 22.9682 20.2367 22.5095 20.5825C22.0507 20.9317 21.3694 21.1029 20.4656 21.1029H18.1719V16.9228H20.3561ZM18.1719 11.5273H20.0411C21.0168 11.5273 21.7255 11.6643 22.174 11.9416C22.6224 12.2189 22.8484 12.6674 22.8484 13.287C22.8484 13.9717 22.6395 14.4578 22.2253 14.7454C21.8111 15.0296 21.1503 15.1734 20.2465 15.1734H18.1719V11.5273ZM16.0151 22.9173H20.7806C22.2561 22.9173 23.4064 22.5818 24.2349 21.9108C25.06 21.2398 25.4742 20.312 25.4742 19.1275C25.4742 18.2477 25.2551 17.5527 24.8203 17.0357C24.3855 16.5222 23.7043 16.1764 22.7765 16.0018V15.9128C23.5228 15.7793 24.0945 15.4575 24.4917 14.9474C24.8888 14.4339 25.0874 13.7937 25.0874 13.0234C25.0874 11.88 24.6834 11.0446 23.872 10.514C23.0641 9.98334 21.7494 9.71973 19.9316 9.71973H16.0151V22.9173Z" fill="#DFE0E2"/>
</g>
<defs>
<clipPath id="clip0_1_1169">
<rect x="0.5" y="-0.00683594" width="835" height="443" rx="20" fill="white"/>
</clipPath>
</defs>
</svg>
